<svg width="12" height="12" viewBox="0 0 12 12" fill="none" xmlns="http://www.w3.org/2000/svg">
<path d="M10.7373 9.43984C10.4794 8.82895 10.1052 8.27405 9.63539 7.80605C9.16703 7.33671 8.61222 6.96251 8.0016 6.7041C7.99613 6.70137 7.99066 6.7 7.98519 6.69727C8.83695 6.08203 9.39066 5.07988 9.39066 3.94922C9.39066 2.07617 7.87308 0.558594 6.00003 0.558594C4.12699 0.558594 2.60941 2.07617 2.60941 3.94922C2.60941 5.07988 3.16312 6.08203 4.01488 6.69863C4.00941 6.70137 4.00394 6.70273 3.99847 6.70547C3.38597 6.96387 2.83636 7.33438 2.36468 7.80742C1.89534 8.27578 1.52113 8.83058 1.26273 9.44121C1.00887 10.039 0.871963 10.6799 0.859409 11.3293C0.859044 11.3439 0.861604 11.3584 0.866937 11.372C0.87227 11.3856 0.880268 11.398 0.890461 11.4084C0.900654 11.4189 0.912835 11.4272 0.926287 11.4328C0.939738 11.4385 0.954188 11.4414 0.968784 11.4414H1.7891C1.84925 11.4414 1.8971 11.3936 1.89847 11.3348C1.92582 10.2793 2.34964 9.29082 3.09886 8.5416C3.87406 7.76641 4.90355 7.33984 6.00003 7.33984C7.09652 7.33984 8.12601 7.76641 8.90121 8.5416C9.65042 9.29082 10.0743 10.2793 10.1016 11.3348C10.103 11.3949 10.1508 11.4414 10.211 11.4414H11.0313C11.0459 11.4414 11.0603 11.4385 11.0738 11.4328C11.0872 11.4272 11.0994 11.4189 11.1096 11.4084C11.1198 11.398 11.1278 11.3856 11.1331 11.372C11.1385 11.3584 11.141 11.3439 11.1407 11.3293C11.127 10.6758 10.9916 10.04 10.7373 9.43984ZM6.00003 6.30078C5.37249 6.30078 4.78187 6.05605 4.33753 5.61172C3.8932 5.16738 3.64847 4.57676 3.64847 3.94922C3.64847 3.32168 3.8932 2.73105 4.33753 2.28672C4.78187 1.84238 5.37249 1.59766 6.00003 1.59766C6.62757 1.59766 7.2182 1.84238 7.66253 2.28672C8.10687 2.73105 8.3516 3.32168 8.3516 3.94922C8.3516 4.57676 8.10687 5.16738 7.66253 5.61172C7.2182 6.05605 6.62757 6.30078 6.00003 6.30078Z" fill="#FA940F"/>
</svg>
